<?xml version="1.0" standalone="no"?>
<!DOCTYPE svg PUBLIC "-//W3C//DTD SVG 20010904//EN"
 "http://www.w3.org/TR/2001/REC-SVG-20010904/DTD/svg10.dtd">
<svg version="1.0" xmlns="http://www.w3.org/2000/svg"
 width="517.000000pt" height="270.000000pt" viewBox="0 0 517.000000 270.000000"
 preserveAspectRatio="xMidYMid meet">

<g transform="translate(0.000000,270.000000) scale(0.100000,-0.100000)"
fill="#000000" stroke="none">
<path d="M2565 1978 c-53 -31 -60 -85 -16 -129 16 -16 39 -29 51 -29 29 0 76
26 84 45 31 81 -47 154 -119 113z"/>
<path d="M990 1881 c-66 -11 -97 -29 -117 -70 -16 -33 -18 -69 -18 -381 0
-376 1 -382 58 -424 27 -20 42 -21 373 -24 323 -3 347 -2 389 17 80 35 80 36
80 431 0 390 -2 400 -73 435 -33 17 -68 19 -342 21 -168 1 -325 -1 -350 -5z
m408 -348 c-161 -301 -152 -288 -192 -291 -20 -2 -36 0 -36 4 0 8 8 22 137
252 73 129 75 132 109 132 l34 0 -52 -97z m-248 57 c0 -25 -12 -39 -80 -91
-44 -35 -79 -66 -78 -70 2 -4 38 -35 81 -68 66 -53 77 -66 77 -92 l0 -30 -27
20 c-148 108 -178 137 -181 171 -2 33 3 38 100 113 56 42 103 77 105 77 2 0 3
-13 3 -30z m423 -50 c86 -67 96 -79 97 -107 0 -33 -22 -54 -172 -167 l-38 -28
0 31 c0 26 11 39 78 92 42 33 78 64 80 68 1 4 -34 35 -78 70 -69 53 -80 66
-80 92 0 17 4 29 8 27 4 -1 51 -37 105 -78z"/>
<path d="M1922 1877 c-30 -14 -27 -34 33 -212 63 -189 119 -317 147 -338 28
-21 114 -25 158 -7 35 14 82 112 146 305 58 173 64 215 34 245 -19 19 -30 22
-76 18 -30 -3 -56 -7 -59 -10 -3 -3 -28 -93 -56 -199 -28 -107 -54 -198 -59
-203 -4 -4 -11 0 -14 10 -3 11 -28 93 -55 184 -61 202 -59 198 -82 210 -23 13
-88 12 -117 -3z"/>
<path d="M2812 1873 l-24 -5 4 -231 c3 -197 6 -237 21 -264 26 -48 69 -67 155
-68 69 0 75 2 98 28 26 30 31 66 12 85 -7 7 -33 12 -60 12 -60 0 -68 14 -68
114 l0 76 58 0 c66 0 82 11 82 56 0 59 -6 64 -76 64 l-64 0 0 48 c0 56 -6 67
-43 81 -29 11 -53 12 -95 4z"/>
<path d="M3296 1771 c-90 -37 -135 -102 -144 -208 -11 -147 77 -249 226 -261
35 -3 58 -8 51 -12 -15 -10 -4 -40 15 -40 21 0 30 19 16 35 -10 12 -9 16 6 20
94 28 156 95 172 185 30 165 -65 288 -228 297 -48 2 -78 -2 -114 -16z m165
-145 c22 -36 25 -118 6 -156 -7 -13 -24 -31 -39 -39 -24 -14 -30 -14 -62 1
-28 14 -37 26 -46 59 -19 70 5 152 49 167 39 13 71 2 92 -32z"/>
<path d="M3867 1780 c-54 -14 -115 -47 -127 -69 -6 -12 -10 -93 -10 -194 0
-207 0 -207 98 -207 l62 0 2 168 3 167 75 15 75 15 3 36 c4 49 -23 72 -91 75
-28 2 -69 -1 -90 -6z"/>
<path d="M2553 1773 c-23 -4 -23 -5 -23 -217 0 -252 -1 -249 96 -244 l59 3 0
212 c0 182 -2 215 -16 228 -17 17 -78 27 -116 18z"/>
<path d="M2023 1095 c-65 -140 -78 -175 -64 -175 10 0 26 18 39 45 l22 45 104
0 104 0 18 -45 c11 -31 23 -45 35 -45 22 0 26 -10 -66 190 -54 118 -76 156
-91 158 -17 2 -32 -23 -101 -173z m145 43 l41 -93 -81 -3 c-44 -2 -83 -1 -86
2 -6 6 70 186 79 186 3 0 24 -42 47 -92z"/>
<path d="M2360 1055 c0 -113 2 -135 15 -135 12 0 15 15 15 75 0 97 17 139 63
154 40 14 80 2 96 -28 6 -11 11 -60 11 -110 0 -84 1 -91 20 -91 18 0 20 7 20
89 0 73 3 93 20 114 25 31 65 42 101 26 36 -14 49 -57 49 -156 0 -60 3 -73 16
-73 14 0 15 14 12 104 -3 94 -5 107 -27 130 -43 45 -116 43 -167 -5 -19 -18
-22 -18 -28 -4 -3 9 -22 23 -42 31 -43 18 -89 11 -121 -19 l-23 -20 0 26 c0
17 -5 27 -15 27 -13 0 -15 -22 -15 -135z"/>
<path d="M2953 1171 c-55 -25 -77 -67 -70 -134 6 -68 46 -108 114 -114 68 -7
109 15 134 73 35 78 -2 162 -79 184 -48 13 -50 13 -99 -9z m107 -26 c37 -19
50 -43 50 -94 0 -60 -38 -101 -95 -101 -62 0 -95 31 -102 93 -5 43 -3 49 30
82 39 39 70 44 117 20z"/>
<path d="M3227 1184 c-4 -4 -7 -65 -7 -136 0 -121 1 -128 20 -128 19 0 20 7
20 90 0 83 2 93 25 115 13 14 33 25 45 25 19 0 38 25 27 36 -9 9 -54 -7 -75
-27 -20 -18 -21 -18 -24 3 -3 22 -19 33 -31 22z"/>
<path d="M3430 1055 c0 -113 2 -135 15 -135 13 0 15 22 15 135 0 113 -2 135
-15 135 -13 0 -15 -22 -15 -135z"/>
<path d="M3567 1183 c-4 -3 -7 -64 -7 -135 0 -121 1 -128 20 -128 18 0 20 7
20 88 0 64 4 94 16 110 23 33 60 45 100 32 42 -14 54 -48 54 -151 0 -64 3 -79
15 -79 12 0 15 15 15 75 0 97 17 139 63 154 40 14 80 2 96 -28 6 -11 11 -60
11 -110 0 -84 1 -91 20 -91 18 0 20 6 19 83 0 45 -5 98 -12 117 -23 69 -129
89 -183 35 l-21 -21 -22 22 c-33 35 -83 40 -130 16 -38 -20 -39 -20 -44 -1 -5
19 -18 25 -30 12z"/>
</g>
</svg>
